<?xml version="1.0" encoding="UTF-8"?>
<svg width="40px" height="45px" viewBox="0 0 40 45" version="1.1" xmlns="http://www.w3.org/2000/svg">
    <title>logo</title>
    <desc>Created with Sketch.</desc>
    <g id="Page-1" stroke="none" stroke-width="1" fill="none" fill-rule="evenodd">
        <g id="Portfolio-A1" transform="translate(-34.000000, -25.000000)">
            <g id="footer">
                <rect fill="#0C1B33" x="0" y="0" width="1440" height="100"></rect>
                <path d="M58.0296722,58.3781942 C58.3362051,58.464981 60.2104255,58.0679196 60.5427364,58.1465077 C61.0824988,58.2741559 61.8721504,57.5830456 62.4548504,57.6831346 C62.5708539,57.7030602 63.4223025,57.6632072 63.547487,57.6831346 C64.0981649,57.7707939 64.9395346,58.1842938 66.0059193,58.3781942 C66.7523304,58.513914 69.072122,57.8715384 70.7588884,58.1465077 C71.1616071,58.2121571 72.2981073,58.3327552 73.1366886,58.5145768 C69.3668748,65.3695107 62.1866311,70 53.9489121,70 C48.324453,70 43.1929609,67.8413886 39.303271,64.2900202 C40.569626,64.5471977 43.0766739,65.0800675 43.9405333,64.9898279 C44.9128508,64.8882587 45.6947779,64.3739385 46.2863147,63.4468673 C47.1510113,63.8457383 48.4356058,63.3695159 50.1400984,62.0182001 C51.844591,60.6668843 53.3712107,58.9143859 54.7199574,56.7607048 C54.7917158,56.666376 54.8466064,56.5715722 54.8846293,56.4762933 C55.5387137,57.3363537 56.5881289,57.970059 58.0296722,58.3781942 Z M53.9489121,25 C61.4260309,25 68.0319357,28.8148854 72.0072981,34.645343 L72.0700523,34.6882453 C71.7300761,34.4909634 70.2708248,32.913476 70.0486746,32.7189097 C67.9710853,30.8992904 66.7493345,30.7327095 65.6234965,30.3441227 C63.4599115,29.5973539 62.0504245,29.9869054 60.5427364,29.4173765 C57.1086945,28.1201679 54.5774197,26.9810424 52.9489121,26 C53.880165,27.0256286 54.6085893,27.7593026 55.1341853,28.2010221 C55.6597812,28.6427417 56.4246268,29.1640364 57.4287221,29.7649063 C56.6653161,29.5797708 56.0825766,29.4060059 55.6805036,29.2436116 C55.2784305,29.0812173 54.7139016,28.7916091 53.9869169,28.3747871 C54.1980592,29.0107279 55.2178534,29.9953957 57.0462993,31.3287905 C57.4596525,31.6302284 60.726156,32.399833 61.1983183,32.7189097 C62.2759331,33.4471378 63.3139379,34.5090345 64.3123326,35.9045997 C64.7393222,36.6867495 64.7393222,37.4783452 64.3123326,38.2793867 C63.9861813,38.8912533 61.6353729,40.770017 61.1983183,41.407155 C60.1654701,42.9128406 59.8376791,44.0326589 60.2149454,44.7666099 C58.6991735,47.2143969 57.6429581,48.8362027 57.0462993,49.6320273 C56.3259603,50.5928166 55.5666432,50.708869 55.1341853,51.427598 C54.1644183,53.0393148 53.8366273,54.1784403 54.1508124,54.8449744 L54.1814347,54.9711108 C53.5021635,54.3478897 52.4550989,53.5417584 51.2012853,52.5889965 C50.479564,52.0405669 49.6436948,51.5421608 48.8555039,50.8174492 C47.0419037,49.1499127 45.1769967,47.9210458 43.1586062,46.1314207 C42.8047204,45.8176445 43.3731824,44.412622 42.9351984,44.0169933 C42.7662648,43.8643964 42.5612854,43.5307799 42.376679,43.2740863 C42.1482235,42.956421 41.9255683,42.7028384 41.5388999,42.416886 C41.1529473,42.1314628 40.4112834,41.4717579 39.639934,40.9882188 C39.3725998,40.8206338 38.8554425,40.3865537 38.4111914,40.1310184 C38.1105252,39.9580739 37.6133556,39.4712618 37.014893,39.1595247 C36.5457888,38.9151701 35.6521578,38.5341921 34.3339999,38.016591 C34.2201317,38.0050571 34.1091363,37.9995369 34.0010136,38.0000304 C37.5022242,30.3214604 45.1179312,25 53.9489121,25 Z" id="logo" fill="#F8A311"></path>
            </g>
            <g id="footer-copy">
                <rect id="footer" fill="#0C1B33" x="0" y="0" width="1440" height="100"></rect>
                <path d="M58.0296722,58.3781942 C58.3362051,58.464981 60.2104255,58.0679196 60.5427364,58.1465077 C61.0824988,58.2741559 61.8721504,57.5830456 62.4548504,57.6831346 C62.5708539,57.7030602 63.4223025,57.6632072 63.547487,57.6831346 C64.0981649,57.7707939 64.9395346,58.1842938 66.0059193,58.3781942 C66.7523304,58.513914 69.072122,57.8715384 70.7588884,58.1465077 C71.1616071,58.2121571 72.2981073,58.3327552 73.1366886,58.5145768 C69.3668748,65.3695107 62.1866311,70 53.9489121,70 C48.324453,70 43.1929609,67.8413886 39.303271,64.2900202 C40.569626,64.5471977 43.0766739,65.0800675 43.9405333,64.9898279 C44.9128508,64.8882587 45.6947779,64.3739385 46.2863147,63.4468673 C47.1510113,63.8457383 48.4356058,63.3695159 50.1400984,62.0182001 C51.844591,60.6668843 53.3712107,58.9143859 54.7199574,56.7607048 C54.7917158,56.666376 54.8466064,56.5715722 54.8846293,56.4762933 C55.5387137,57.3363537 56.5881289,57.970059 58.0296722,58.3781942 Z M53.9489121,25 C61.4260309,25 68.0319357,28.8148854 72.0072981,34.645343 L72.0700523,34.6882453 C71.7300761,34.4909634 70.2708248,32.913476 70.0486746,32.7189097 C67.9710853,30.8992904 66.7493345,30.7327095 65.6234965,30.3441227 C63.4599115,29.5973539 62.0504245,29.9869054 60.5427364,29.4173765 C57.1086945,28.1201679 54.5774197,26.9810424 52.9489121,26 C53.880165,27.0256286 54.6085893,27.7593026 55.1341853,28.2010221 C55.6597812,28.6427417 56.4246268,29.1640364 57.4287221,29.7649063 C56.6653161,29.5797708 56.0825766,29.4060059 55.6805036,29.2436116 C55.2784305,29.0812173 54.7139016,28.7916091 53.9869169,28.3747871 C54.1980592,29.0107279 55.2178534,29.9953957 57.0462993,31.3287905 C57.4596525,31.6302284 60.726156,32.399833 61.1983183,32.7189097 C62.2759331,33.4471378 63.3139379,34.5090345 64.3123326,35.9045997 C64.7393222,36.6867495 64.7393222,37.4783452 64.3123326,38.2793867 C63.9861813,38.8912533 61.6353729,40.770017 61.1983183,41.407155 C60.1654701,42.9128406 59.8376791,44.0326589 60.2149454,44.7666099 C58.6991735,47.2143969 57.6429581,48.8362027 57.0462993,49.6320273 C56.3259603,50.5928166 55.5666432,50.708869 55.1341853,51.427598 C54.1644183,53.0393148 53.8366273,54.1784403 54.1508124,54.8449744 L54.1814347,54.9711108 C53.5021635,54.3478897 52.4550989,53.5417584 51.2012853,52.5889965 C50.479564,52.0405669 49.6436948,51.5421608 48.8555039,50.8174492 C47.0419037,49.1499127 45.1769967,47.9210458 43.1586062,46.1314207 C42.8047204,45.8176445 43.3731824,44.412622 42.9351984,44.0169933 C42.7662648,43.8643964 42.5612854,43.5307799 42.376679,43.2740863 C42.1482235,42.956421 41.9255683,42.7028384 41.5388999,42.416886 C41.1529473,42.1314628 40.4112834,41.4717579 39.639934,40.9882188 C39.3725998,40.8206338 38.8554425,40.3865537 38.4111914,40.1310184 C38.1105252,39.9580739 37.6133556,39.4712618 37.014893,39.1595247 C36.5457888,38.9151701 35.6521578,38.5341921 34.3339999,38.016591 C34.2201317,38.0050571 34.1091363,37.9995369 34.0010136,38.0000304 C37.5022242,30.3214604 45.1179312,25 53.9489121,25 Z" id="logo" fill="#F8A311"></path>
            </g>
        </g>
    </g>
</svg>